Patient4_TMGait_0pt6_02_left_35_EMG.mot
version=1
nRows=30
nColumns=33
inDegrees=no
endheader
time	1LAddLong	2LGlutMax	3LGlutMed	4LIliopsoas	5LSemiMemb	6LBicFemLong	7LRecFem	8LVastMed	9LVastLat	10LGasMed	11LTibAnt	12lTibPost	13LPeroneusLong	14LSol	15LExtDigLong	16LFlexDigLong	17RAddLong	18RGlutMax	19RGlutMed	20RIliopsoas	21RSemiMemb	22RBicFemLong	23RRecFem	24RVastMed	25RVastLat	26RGasMed	27RTibAnt	28RTibPost	29RPeroneusLong	30RSol	31RExtDigLong	32RFlexDigLong
43.137	0.015106	1.4061	-0.09491	0.010986	0.08667	-0.097351	-0.1648	0.005341	-0.12024	0.12268	0.004883	0.028076	0.077057	-0.1947	-0.009613	0.005188	-0.06073	0.001221	0.2475	-0.091553	-0.21149	0.066223	0.6247	-0.13153	0.006866	0.012665	-0.26672	-0.003967	0.041656	0.20371	-0.00473	-0.014648
43.138	0.031281	1.4616	-0.12222	-0.015411	0.034637	-0.17899	-0.19043	0.005798	-0.097198	0.079651	-0.016632	0.03006	0.31036	-0.019226	-0.012817	0.01297	-0.088196	-0.042114	-0.022888	0.032501	-0.22568	0.10239	0.62531	-0.04715	0.010071	0.012054	-0.095367	-0.006866	0.018463	0.11276	-0.010071	-0.011749
43.139	0.032806	1.5271	-0.29236	0.002747	0.006866	-0.10971	-0.24185	0.006714	-0.096436	-0.069427	0.001068	0.036316	-0.03418	-0.036774	-0.077515	0.15335	-0.063782	-0.061951	-0.27481	0.1474	-0.19806	0.12573	0.61874	-0.074768	-0.002136	0.009155	-0.001678	0.003204	-0.009003	0.046997	-0.008545	-0.020447
43.14	0.033264	1.5804	-0.3598	-0.010529	0.024109	-0.016785	-0.28153	-0.003815	-0.1062	-0.22583	0.028839	0.024567	-0.11017	-0.04837	-0.085602	-0.16068	0.016632	-0.06134	-0.15366	0.11002	-0.15366	0.11963	0.5452	-0.056763	0.013428	0.008392	0.02182	-0.003662	-0.028839	0.02655	-0.009918	-0.020142
43.141	0.036316	1.6455	-0.27908	-0.002136	0.012512	0.029907	-0.25971	0.014496	-0.11276	-0.060425	0.033264	0.023346	-0.023193	-0.057831	-0.024872	-0.34515	0.05249	-0.02594	-0.18234	0.10559	-0.16144	0.092621	0.55649	-0.088959	0.01236	0.006866	0.14832	-0.003815	-0.024414	0.021515	-0.007324	-0.020905
43.142	0.021667	1.6164	-0.081024	-0.00061	0.001678	0.039673	-0.29968	0.014191	-0.12924	0.23834	0.020752	0.034027	-0.077972	0.040283	0.04364	0.95337	0.047455	-0.045471	-0.15198	0.089111	-0.16419	0.10391	0.50232	0.011139	0.012665	0.004425	0.26764	-0.003815	-0.10376	-0.010986	-0.00946	-0.035095
43.143	0.020599	1.559	-0.15167	0.005951	-0.010681	0.024567	-0.38223	0.013885	-0.11643	0.14511	0.010376	0.024719	0.07431	-0.03479	0.009766	0.1767	0.012207	-0.039368	-0.075531	0.019379	-0.11078	0.18982	0.44357	0.077057	0.040131	0.003967	0.25207	-0.009155	-0.094757	-0.017242	-0.009766	-0.033417
43.144	0.013733	1.5384	-0.059204	0.011444	-0.008545	0.043488	-0.4274	0.01358	-0.13702	-0.06958	0.014648	0.072632	-0.012665	-0.17899	0.019379	-0.52536	0.001984	0.033569	0.14481	0.023651	-0.096436	0.23514	0.49362	0.16754	0.037384	0.00946	-0.065155	-0.005798	0.000916	-0.059052	-0.006714	-0.029907
43.145	0.014038	1.4896	-0.015717	0.01236	-0.036469	0.10941	-0.4631	0.006561	-0.032043	-0.10712	0.021973	0.083923	-0.12894	-0.10651	0.026398	0.019684	-0.050049	0.063934	0.22324	0.033722	-0.10788	0.25818	0.51987	0.23911	0.021057	0.00824	-0.61371	-0.000916	0.060425	-0.13168	-0.017548	-0.033875
43.146	-0.001984	1.393	-0.008545	0.006561	-0.10635	0.13336	-0.52094	0.013885	0.091248	-0.18112	0.016937	0.056458	-0.1503	0.087585	0.023651	0.73364	-0.033112	0.084076	0.099182	0.070038	-0.10254	0.27954	0.54336	0.224	0.033264	0.010834	-0.78522	-0.00351	0.069885	-0.12817	-0.001831	-0.030823
43.147	0.010071	1.2581	0.14954	-0.004578	-0.16129	0.096283	-0.53833	0.023193	0.19592	-0.062561	0.009918	0.032654	-0.054932	0.23483	0.020752	0.28198	-0.046387	0.12955	0.001373	0.092316	-0.10559	0.2655	0.51819	0.2803	0.040283	0.003357	-0.31921	-0.001526	-0.028992	-0.069275	-0.013733	-0.027466
43.148	0.016479	1.1249	0.20538	-0.007172	-0.085754	0.13763	-0.4686	0.018616	0.39169	0.12146	0.003204	0.054016	-0.052185	0.22781	-0.003357	0.029755	-0.042572	0.08728	0.16174	0.080109	-0.10925	0.34256	0.54916	0.25971	0.03891	0.000458	0.22568	-0.00473	-0.16129	-0.043793	-0.005493	-0.028229
43.149	0.009308	0.8786	0.10803	0.019684	-0.090179	0.26199	-0.38788	0.016479	0.298	0.14923	0.018158	0.061188	-0.069427	0.047913	-0.024261	-0.083313	-0.024872	0.014648	0.23972	0.088348	-0.1062	0.35904	0.55954	0.26443	0.023041	0.006104	0.49393	0.001984	-0.12695	-0.046387	-0.018921	-0.019836
43.15	-0.005188	0.68237	-0.008545	0.01709	-0.067596	0.33127	-0.38055	0.012512	0.18906	-0.051575	0.00946	0.05722	-0.039673	0.16937	-0.014191	0.18295	0.000916	-0.050201	0.1651	0.039215	-0.095978	0.38544	0.56625	0.25131	0.00885	0.013733	0.52261	-0.002899	-0.084839	-0.097198	-0.016632	-0.013733
43.151	-0.011139	0.49744	-0.11719	0.001831	-0.020142	0.39307	-0.23041	0.007629	-0.001221	-0.14328	0.002136	0.059814	0.022888	0.23254	0.005798	0.09613	0.019836	-0.1059	0.15976	0.028381	-0.049744	0.42023	0.58212	0.27817	0.028381	0.010071	0.42908	-0.001678	-0.1207	-0.11047	-0.018463	-0.014343
43.152	-0.016022	0.38834	0.022125	-0.015717	-0.10696	0.36514	-0.21759	0.010529	-0.13718	-0.16769	0.002289	0.063629	0.036163	0.3569	-0.00885	-0.16693	0.061188	-0.13931	0.10468	-0.028687	-0.023041	0.43564	0.61645	0.2182	0.016174	0.007629	0.15961	-0.000763	-0.16403	-0.10223	-0.015869	-0.01709
43.153	0.000305	0.14358	0.13886	-0.0177	-0.11871	0.26611	-0.2385	-0.004425	-0.24506	-0.19196	0.014496	0.038452	-0.032959	0.1387	-0.015259	0.16434	0.10315	-0.1622	0.14587	-0.058289	-0.018005	0.43335	0.62531	0.18936	-0.014038	0.00473	0.078125	-0.002594	-0.14069	-0.10101	-0.019073	-0.011902
43.154	0.037537	-0.084381	0.07309	-0.005493	-0.041656	0.25406	-0.21545	0.001984	-0.21378	-0.16251	0.03006	0.040283	-0.078278	-0.11398	0.026245	-0.13702	0.10361	-0.14786	0.30502	-0.008698	-0.024567	0.44205	0.6842	0.059967	0.001831	0.001373	0.30319	-0.005493	-0.10193	-0.13962	-0.016327	-0.013733
43.155	0.038605	-0.25131	-0.020599	0.007477	0.046387	0.33936	-0.20233	0.001526	-0.13031	-0.2301	0.011597	0.046844	-0.088348	-0.12665	0.045013	-0.023651	0.054626	-0.18265	0.35629	-0.024109	-0.037231	0.44586	0.61279	0.080261	-0.020294	0.016327	0.14084	-0.001221	-0.053406	-0.067291	-0.019531	-0.021515
43.156	0.027161	-0.32059	-0.12924	0.00885	0.12604	0.4245	-0.25131	0.002289	-0.050049	-0.25665	0.00412	0.028839	-0.045013	-0.1062	0.018616	0.49637	0.050354	-0.18524	0.26596	-0.072479	-0.043945	0.40604	0.60638	0.015717	-0.020447	0.006104	0.11749	-0.004425	-0.065308	0.051727	-0.017242	-0.02243
43.157	0.016174	-0.4216	-0.18387	-0.004272	0.082397	0.42358	-0.31403	0.00351	-0.004425	-0.21759	0.021973	0.016632	0.002747	-0.035553	-0.026093	0.17563	0.054779	-0.24612	0.15274	-0.11673	-0.049438	0.38193	0.5986	0.016632	-0.023651	0.010071	0.2803	-0.003815	-0.014191	0.00824	-0.018311	-0.021362
43.158	-0.000763	-0.5542	-0.11841	0.000916	-0.011139	-0.23651	-0.37247	-0.010223	0.033112	-0.15533	-0.005646	0.002136	0.02655	-0.075073	0.011749	0.059662	0.067749	-0.25925	0.3479	0.036163	-0.063934	0.39215	0.45532	-0.043182	-0.01709	0.010681	0.25467	0.000153	0.014801	-0.13168	-0.014648	-0.02594
43.159	-0.013885	-0.53589	-0.039063	0.02243	-0.10025	0.080261	-0.37231	-0.000153	0.027008	-0.011902	-0.016632	0.011749	-0.001984	-0.078278	-0.013733	-0.007477	0.087738	-0.23697	-0.074005	0.2562	-0.085144	0.38803	0.24933	-0.11002	-0.046997	0.003052	0.26352	-0.003357	-0.054779	-0.10788	-0.019836	-0.02243
43.16	-0.016937	-0.48019	-0.038757	0.020599	-0.11627	-0.088348	-0.33432	-0.005035	0.041504	0.076904	-0.005188	0.030518	-0.022888	0.024872	-0.011292	-0.029297	0.095978	-0.28244	-0.089722	0.40161	-0.077362	0.40268	0.11932	-0.14038	-0.047302	0.000458	0.37903	-0.001984	-0.12161	-0.081177	-0.016174	-0.014648
43.161	-0.012512	-0.41763	-0.03891	0.017548	-0.079041	-0.13977	-0.31677	-0.008087	0.075226	-0.052185	0.019684	0.027008	-0.034637	0.11246	0.010529	-0.049286	0.13275	-0.24704	0.13825	0.32257	-0.062103	0.43442	0.21896	-0.1268	-0.027161	0.00351	0.31662	-0.001526	-0.10254	-0.15259	-0.019989	-0.014954
43.162	-0.063171	-0.41809	0.001984	0.000458	0.001068	-0.20279	-0.30014	-0.018311	0.12161	-0.13901	0.034485	-0.034637	-0.006714	0.27206	0.048828	0.004883	0.18036	-0.14725	0.22919	0.18692	-0.034943	0.49835	0.40222	-0.11826	-0.036163	0.00412	0.27023	-0.006866	-0.076447	-0.12268	-0.023651	-0.016785
43.163	-0.080566	-0.37521	-0.007782	-0.021057	0.084839	-0.37552	-0.28473	-0.025787	0.12878	-0.15488	0.00824	0.031738	0.023499	0.26886	0.052338	0.014496	0.21133	-0.16632	0.23315	0.10635	-0.066528	0.53619	0.54733	-0.18677	-0.042419	-0.001221	0.019531	-0.002899	-0.059357	-0.10803	-0.018921	-0.018005
43.164	0.075226	-0.3331	-0.061951	-0.012817	0.16541	-0.46463	-0.26276	-0.023956	0.13397	-0.045776	0.010986	0.033264	-0.089569	-0.034027	0.005798	-0.094757	0.2269	-0.1152	0.3183	0.011749	-0.10635	0.57739	0.625	-0.20996	-0.051117	-0.000305	-0.0177	-0.00412	-0.048218	-0.092773	-0.019073	-0.001831
43.165	0.032501	-0.31357	-0.059662	-0.004883	0.097504	-0.36499	-0.25574	-0.009766	0.15472	0.032043	0.017242	-0.092621	-0.072021	0.023651	-0.026093	0.036316	0.1506	-0.079651	0.33325	-0.00351	-0.13367	0.59158	0.74539	-0.20676	-0.063934	-0.004578	0.17853	-0.009613	-0.065765	-0.049286	-0.016479	-0.007019
43.166	0.025635	-0.30563	-0.090027	-0.021515	0.014191	-0.28046	-0.19821	-0.006561	0.18829	0.062561	0.00351	-0.056305	-0.014343	0.31143	-0.041504	-0.52795	0.075684	-0.19134	0.025177	-0.047607	-0.13931	0.60059	0.74616	-0.21469	-0.052185	-0.00061	0.50659	-0.005035	-0.076904	-0.031738	-0.021057	-0.005493
